<?xml version="1.0" encoding="iso-8859-1"?>
<!-- Generator: Adobe Illustrator 19.0.0, SVG Export Plug-In . SVG Version: 6.00 Build 0)  -->
<svg version="1.1" id="Capa_1" xmlns="http://www.w3.org/2000/svg" xmlns:xlink="http://www.w3.org/1999/xlink" x="0px" y="0px"
	 viewBox="0 0 512 512" style="enable-background:new 0 0 512 512;" xml:space="preserve">
<g>
	
		<rect x="59.733" y="351.23" transform="matrix(-0.7071 -0.7071 0.7071 -0.7071 -141.2053 782.5858)" style="fill:#C1DEF5;" width="63.487" height="138.614"/>
	
		<rect x="137.547" y="328.295" transform="matrix(-0.7071 -0.7071 0.7071 -0.7071 46.6636 704.7507)" style="fill:#C1DEF5;" width="63.487" height="28.832"/>
</g>
<g>
	<path style="fill:#FFC377;" d="M34.286,504.5L7.51,477.724c0-2.734,0-4.267,0-7l18.064-18.064l33.776,33.776L41.286,504.5
		C38.552,504.5,37.019,504.5,34.286,504.5z"/>
	
		<rect x="130.284" y="349.052" transform="matrix(-0.7071 -0.7071 0.7071 -0.7071 -0.4301 724.2576)" style="fill:#FFC377;" width="38.998" height="26.332"/>
</g>
<rect x="53.3" y="371.065" transform="matrix(-0.7071 0.7071 -0.7071 -0.7071 393.4658 598.4044)" style="fill:#FFEA98;" width="38.998" height="19.254"/>
<path style="fill:#00FFF7;" d="M194.84,347.88l-30.64-30.64L473.798,7.502c4.225,0,6.594-0.001,10.819-0.001l19.871,19.871
	c0,4.186,0.001,6.534,0.001,10.72L194.84,347.88z"/>
<g>
	
		<rect x="388.79" y="351.218" transform="matrix(-0.7071 0.7071 -0.7071 -0.7071 1015.2524 420.5195)" style="fill:#C1DEF5;" width="63.487" height="138.614"/>
	
		<rect x="310.967" y="328.29" transform="matrix(-0.7071 0.7071 -0.7071 -0.7071 827.3734 342.7018)" style="fill:#C1DEF5;" width="63.487" height="28.832"/>
</g>
<g>
	<path style="fill:#FFEA98;" d="M504.5,477.714l-26.776,26.776c-2.734,0-4.267,0-7,0l-18.064-18.064l33.776-33.776l18.064,18.064
		C504.5,473.447,504.5,474.98,504.5,477.714z"/>
	
		<rect x="342.711" y="349.05" transform="matrix(-0.7071 0.7071 -0.7071 -0.7071 874.4573 362.2189)" style="fill:#FFEA98;" width="38.998" height="26.332"/>
</g>
<rect x="361.191" y="429.575" transform="matrix(0.7071 0.7071 -0.7071 0.7071 422.0642 -140.5496)" style="fill:#FFC377;" width="38.998" height="19.254"/>
<path style="fill:#00DDC0;" d="M195.701,317.239l299.26-299.395L484.617,7.501c-4.225,0-6.594,0.001-10.819,0.001L164.2,317.239
	l30.64,30.64l15.746-15.754L195.701,317.239z"/>
<path style="fill:#FF3E82;" d="M347.879,317.159l-30.64,30.64L7.501,38.202c0-4.225-0.001-6.594-0.001-10.819l19.87-19.871
	c4.186,0,6.534-0.001,10.72-0.001L347.879,317.159z"/>
<rect x="53.3" y="371.065" transform="matrix(-0.7071 0.7071 -0.7071 -0.7071 393.4658 598.4044)" style="fill:#FFDD55;" width="38.998" height="19.254"/>
<rect x="361.191" y="429.575" transform="matrix(0.7071 0.7071 -0.7071 0.7071 422.0642 -140.5496)" style="fill:#FFA633;" width="38.998" height="19.254"/>
<g>
	<polygon style="fill:#95C7EE;" points="51.094,447.101 133.57,364.625 118.032,349.086 20.016,447.101 64.908,491.995 
		80.447,476.455 	"/>
	<polygon style="fill:#95C7EE;" points="155.72,330.466 166.573,319.613 157.038,310.079 136.651,330.466 181.543,375.359 
		191.078,365.824 	"/>
</g>
<g>
	<polygon style="fill:#FFA633;" points="23.008,477.724 23.008,470.723 33.322,460.409 25.574,452.66 7.509,470.723 7.509,477.724 
		34.286,504.5 41.286,504.5 45.535,500.251 	"/>
	<polygon style="fill:#FFA633;" points="142.187,357.744 153.057,346.873 145.309,339.125 126.689,357.744 154.265,385.32 
		162.014,377.571 	"/>
</g>
<g>
	<polygon style="fill:#95C7EE;" points="386.584,393.969 412.727,367.826 393.977,349.076 349.085,393.969 447.101,491.984 
		465.85,473.234 	"/>
	<polygon style="fill:#95C7EE;" points="328.998,354.961 364.43,319.528 354.971,310.069 310.078,354.961 330.465,375.349 
		339.925,365.889 	"/>
</g>
<g>
	<polygon style="fill:#FFDD55;" points="469.532,486.426 494.871,461.086 486.435,452.65 452.659,486.426 470.723,504.49 
		477.724,504.49 482.659,499.553 	"/>
	<polygon style="fill:#FFDD55;" points="355.997,366.691 375.136,347.55 366.7,339.115 339.123,366.691 357.744,385.31 
		366.18,376.874 	"/>
</g>
<path style="fill:#B12E65;" d="M39.002,38.202c0-4.225-0.001-6.594-0.001-10.819l9.484-9.484L38.09,7.511
	c-4.186,0-6.534,0.001-10.72,0.001L7.499,27.383c0,4.225,0.001,6.594,0.001,10.819L317.239,347.8l15.746-15.746L39.002,38.202z"/>
<rect x="234.389" y="234.355" transform="matrix(0.7069 -0.7073 0.7073 0.7069 -106.0366 256.1458)" style="fill:#C1DEF5;" width="43.328" height="43.328"/>
<polygon style="fill:#95C7EE;" points="271.795,270.89 241.147,240.257 225.405,256.007 243.627,274.222 256.052,286.64 "/>
<g>
	
		<rect x="232.519" y="161.279" transform="matrix(0.7071 -0.7071 0.7071 0.7071 -49.0442 219.1531)" style="fill:#1D1D1F;" width="14.999" height="14.999"/>
	
		<rect x="214.843" y="143.599" transform="matrix(0.7071 -0.7071 0.7071 0.7071 -41.7203 201.4758)" style="fill:#1D1D1F;" width="14.999" height="14.999"/>
	
		<rect x="197.164" y="125.919" transform="matrix(-0.7071 -0.7071 0.7071 -0.7071 255.0411 372.4795)" style="fill:#1D1D1F;" width="14.999" height="14.999"/>
	
		<rect x="355.601" y="212.012" transform="matrix(-0.7071 -0.7071 0.7071 -0.7071 464.6343 631.481)" style="fill:#1D1D1F;" width="14.999" height="14.999"/>
	
		<rect x="320.297" y="247.363" transform="matrix(0.7071 0.7071 -0.7071 0.7071 276.2246 -157.1398)" style="fill:#1D1D1F;" width="14.999" height="14.999"/>
	
		<rect x="373.284" y="194.332" transform="matrix(-0.7071 -0.7071 0.7071 -0.7071 507.3214 613.8037)" style="fill:#1D1D1F;" width="14.999" height="14.999"/>
	
		<rect x="337.943" y="229.681" transform="matrix(-0.7071 -0.7071 0.7071 -0.7071 421.9955 649.1582)" style="fill:#1D1D1F;" width="14.999" height="14.999"/>
</g>
<g>
	
		<rect x="61.617" y="410.016" transform="matrix(0.7071 0.7071 -0.7071 0.7071 326.9405 78.1647)" style="fill:#FFFFFF;" width="14.999" height="47.438"/>
	
		<rect x="90.731" y="397.058" transform="matrix(-0.7071 -0.7071 0.7071 -0.7071 -118.3758 760.0823)" style="fill:#FFFFFF;" width="14.999" height="14.999"/>
	
		<rect x="108.406" y="379.386" transform="matrix(-0.7071 -0.7071 0.7071 -0.7071 -75.7058 742.4122)" style="fill:#FFFFFF;" width="14.999" height="14.999"/>
	
		<rect x="409.171" y="87.824" transform="matrix(-0.7071 -0.7071 0.7071 -0.7071 643.8973 457.3574)" style="fill:#FFFFFF;" width="14.999" height="14.999"/>
	
		<rect x="391.498" y="105.503" transform="matrix(-0.7071 -0.7071 0.7071 -0.7071 601.2273 475.0418)" style="fill:#FFFFFF;" width="14.999" height="14.999"/>
	
		<rect x="339.601" y="108.969" transform="matrix(0.7071 0.7071 -0.7071 0.7071 218.2876 -197.1296)" style="fill:#FFFFFF;" width="14.999" height="111.925"/>
</g>
<g>
	<path style="fill:#1D1D1F;" d="M497.042,452.65l5.558-5.558l-68.388-68.388l-10.607,10.606l57.782,57.781l-34.287,34.287l0,0
		l-87.409-87.409l34.287-34.287l19.02,19.02l10.607-10.606l-29.628-29.627l-8.659,8.659l-8.014-8.014l8.658-8.658l-30.993-30.994
		l-7.093,7.093l-22.255-22.245l-10.604,10.609l22.252,22.242l-20.034,20.034l-50.58-50.557l20.03-20.039l17.723,17.715
		l10.604-10.609L297.29,255.99l214.7-214.794l-0.001-16.931L487.723,0L470.69,0.002l-13.708,13.714l10.609,10.604l9.315-9.32h4.604
		l15.478,15.477l0.001,4.508L286.682,245.387l-20.037-20.028L456.987,34.93l-10.609-10.604L256.036,214.754L41.196,0.01
		L24.263,0.013L0,24.276l0.002,17.034l13.715,13.708l10.604-10.608l-9.319-9.316l-0.001-4.605l15.478-15.477h4.508l210.445,210.35
		l-20.029,20.039L34.928,55.014L24.326,65.623l190.473,190.387l-50.599,50.622l-7.16-7.16l-30.994,30.994l8.658,8.659l-8.014,8.014
		l-8.658-8.658l-24.63,24.63l-13.616-13.615l-38.183,38.181l13.616,13.615l-45.809,45.81l5.558,5.558L0.009,467.617v13.213
		L31.179,512h13.213l14.958-14.958l5.559,5.558l68.389-68.389l-10.607-10.606l-57.781,57.783l-34.287-34.287l87.41-87.409l0,0l0,0
		l0,0l0,0l34.286,34.286l-19.02,19.02l10.607,10.606l29.626-29.627l-8.658-8.658l8.014-8.014l8.659,8.659l30.993-30.995
		l-7.093-7.093l22.244-22.254l-10.609-10.604l-22.241,22.252l-20.033-20.033l50.602-50.624l20.037,20.028l-17.76,17.768
		l10.609,10.604l17.76-17.768l50.577,50.555l-7.16,7.16l30.994,30.994l8.658-8.658l8.014,8.014l-8.659,8.658l24.63,24.63
		l-13.615,13.615l38.183,38.183l13.615-13.615l45.809,45.809l5.558-5.558l14.958,14.958h13.214L512,480.821v-13.213L497.042,452.65z
		 M38.179,497h-0.787l-22.383-22.383v-0.788l10.564-10.564l23.17,23.17L38.179,497z M62.815,387.677l16.97-16.97l3.01,3.009
		l-16.97,16.97L62.815,387.677z M137.296,357.744l8.013-8.014l16.97,16.97l-8.014,8.014L137.296,357.744z M157.038,320.685
		l34.286,34.287l-9.781,9.781l-34.287-34.287L157.038,320.685z M236.011,256.005l20.03-20.039l20.037,20.028l-20.03,20.039
		L236.011,256.005z M354.971,320.675l9.781,9.782l-34.286,34.286l-9.782-9.781L354.971,320.675z M366.7,349.72l8.014,8.014
		l-16.97,16.97l-8.013-8.014L366.7,349.72z M387.677,449.184l-16.97-16.97l3.009-3.009l16.97,16.97L387.677,449.184z
		 M496.999,474.607l-22.382,22.383h-0.788l-10.564-10.564l23.17-23.17l10.564,10.564V474.607z"/>
	
		<rect x="436.314" y="445.473" transform="matrix(-0.7071 -0.7071 0.7071 -0.7071 437.3375 1087.0955)" style="fill:#1D1D1F;" width="14.999" height="14.999"/>
	
		<rect x="418.624" y="427.805" transform="matrix(0.7071 0.7071 -0.7071 0.7071 432.6153 -173.8172)" style="fill:#1D1D1F;" width="14.999" height="14.999"/>
	
		<rect x="400.937" y="410.131" transform="matrix(0.7071 0.7071 -0.7071 0.7071 414.938 -166.4874)" style="fill:#1D1D1F;" width="14.999" height="14.999"/>
</g>
<g>
	
		<rect x="47.042" y="121.622" transform="matrix(0.7071 0.7071 -0.7071 0.7071 129.1204 -53.4816)" style="fill:#FFFFFF;" width="164.153" height="14.999"/>
	
		<rect x="192.036" y="192.031" transform="matrix(0.7071 0.7071 -0.7071 0.7071 199.5324 -82.6518)" style="fill:#FFFFFF;" width="14.999" height="14.999"/>
	
		<rect x="209.71" y="209.699" transform="matrix(-0.7071 -0.7071 0.7071 -0.7071 217.2172 524.3707)" style="fill:#FFFFFF;" width="14.999" height="14.999"/>
</g>
<g>
</g>
<g>
</g>
<g>
</g>
<g>
</g>
<g>
</g>
<g>
</g>
<g>
</g>
<g>
</g>
<g>
</g>
<g>
</g>
<g>
</g>
<g>
</g>
<g>
</g>
<g>
</g>
<g>
</g>
</svg>
